<?xml version="1.0"?>
<svg xmlns="http://www.w3.org/2000/svg" id="Capa_1" enable-background="new 0 0 481.215 481.215" height="512px" viewBox="0 0 481.215 481.215" width="512px" class=""><g><path d="m480.469 215.646-21.834-109.168c-1.767-8.768-6.409-16.695-13.191-22.526l-47.613-40.811c-1.45-1.242-3.297-1.925-5.207-1.926h-19.224c-2.956-1.978-6.083-3.945-9.448-5.943l-5.421-35.272-15.814 2.43 15.882 115.82-18.775-12.515c-13.882-9.245-32.631-5.487-41.876 8.395-8.395 12.606-6.155 29.48 5.238 39.459l50.984 44.61 19.811 39.616 1.943 15.186c.067 3.556-2.316 6.692-5.76 7.58-.18.046-.358.098-.534.156-2.159.394-4.384-.161-6.106-1.522-1.829-1.421-2.9-3.607-2.9-5.923v-12.077h-16v19.84c-.017 3.494-2.407 6.529-5.8 7.364-.114.028-.227.06-.339.094l-.564.169c-2.244.499-4.594-.04-6.397-1.467-1.829-1.421-2.9-3.607-2.9-5.923v-20.077h-16v24c.003 4.023-3 7.415-6.994 7.9-.333.051-.669.084-1.006.1-2.085.021-4.088-.81-5.546-2.3-.051-.052-.1-.1-.156-.155-1.489-1.458-2.319-3.461-2.298-5.545v-24h-16v20c.015 2.318-.659 4.589-1.937 6.523l-.06.091c-3.63 5.534-11.058 7.078-16.592 3.448-3.389-2.223-5.425-6.009-5.411-10.062v-260h-16v316c0 6.627-5.373 12-12 12s-12-5.373-12-12v-20h-16v24c.02 2.085-.81 4.088-2.3 5.546-.053.051-.1.1-.156.155-1.458 1.489-3.46 2.319-5.544 2.299-4.416-.005-7.995-3.584-8-8v-24h-16v20.08c-.001 2.315-1.071 4.5-2.9 5.92-1.804 1.427-4.155 1.965-6.4 1.464l-.564-.169c-.112-.034-.225-.066-.339-.094-3.393-.835-5.783-3.87-5.8-7.364v-19.837h-15.997v12.08c-.001 2.315-1.071 4.5-2.9 5.92-1.722 1.362-3.948 1.917-6.108 1.522-.174-.057-.349-.109-.526-.154-2.255-.578-4.122-2.156-5.067-4.284l13.051-26.1 50.984-44.61c12.541-10.996 13.793-30.077 2.797-42.618-9.976-11.377-26.832-13.616-39.431-5.236l-14.176 9.451 8.511-64.933 8.078-61.754 6.313-47.943 3.726-25.519-15.833-2.31-3.09 21.168c-107.841 48.142-164.707 167.517-134.142 281.592l-.032.159c-.078.392-.127.789-.146 1.188l-8 168c-.21 4.413 3.197 8.161 7.61 8.372.127.006.254.009.381.009h96c4.418 0 8-3.582 8-8 0-.167-.005-.333-.016-.5l-1.852-29.644c76.591 49.243 174.446 50.927 252.685 4.348l-2.768 24.911c-.489 4.391 2.675 8.347 7.066 8.836.294.033.589.049.885.049h104c4.418 0 8-3.582 8-8v-256c0-.527-.052-1.052-.155-1.569zm-358.028 116.255c2.166.498 4.368.822 6.585.97 3.995-.002 7.924-1.025 11.413-2.971 3.221 4.939 8.169 8.499 13.876 9.983l.649.194c2 .403 4.026.668 6.062.794 4.751-.006 9.388-1.452 13.3-4.148 4.552 5.386 11.246 8.493 18.298 8.492 6.369.035 12.48-2.513 16.937-7.062.078-.077.152-.158.229-.237 11.407 10.418 29.099 9.616 39.516-1.79 4.719-5.166 7.329-11.914 7.318-18.911v-30.669c10.274 4.823 22.439 3.007 30.855-4.608.07.071.137.145.208.215 4.457 4.549 10.568 7.097 16.937 7.062.991-.008 1.98-.081 2.962-.219 5.971-.726 11.446-3.684 15.326-8.279 3.914 2.7 8.555 4.149 13.31 4.154 2.256-.188 4.497-.517 6.711-.988 5.707-1.484 10.655-5.044 13.876-9.983 3.489 1.947 7.418 2.969 11.413 2.971 1.906-.001 3.805-.231 5.657-.683.314-.077.623-.172.925-.286 2.975-.861 5.75-2.303 8.166-4.241l-10.923 98.3c-29.708 30.372-69.025 49.509-111.256 54.154 5.905-8.441 4.896-19.903-2.392-27.183-1.339-1.338-2.769-2.58-4.282-3.717 1.512-1.137 2.942-2.379 4.281-3.716 8.354-8.247 8.44-21.705.193-30.059s-21.705-8.44-30.059-.193c-.064.064-.128.128-.192.192-1.337 1.339-2.579 2.769-3.716 4.281-1.138-1.512-2.379-2.942-3.716-4.281-8.353-8.248-21.81-8.163-30.059.189-8.175 8.278-8.175 21.59 0 29.869 1.339 1.338 2.769 2.58 4.282 3.717-1.512 1.137-2.942 2.379-4.281 3.716-4 3.977-6.242 9.389-6.226 15.029.005 1.561.18 3.118.524 4.641-30.246-9.586-57.513-26.803-79.171-49.99l-1.234-19.745 9.575-19.15c2.409 1.912 5.169 3.333 8.123 4.186zm78.183 42.569c.003-2.903 2.358-5.255 5.262-5.252 1.391.001 2.725.554 3.709 1.536 3.866 3.844 6.296 8.897 6.885 14.316-5.42-.588-10.474-3.018-14.317-6.885-.989-.983-1.543-2.321-1.539-3.715zm32.144 10.6c.589-5.419 3.019-10.473 6.885-14.316 2.024-2.08 5.351-2.125 7.431-.1 2.08 2.024 2.125 5.351.1 7.431-.033.034-.067.068-.101.101-3.843 3.866-8.896 6.296-14.315 6.884zm14.317 30.606c-2.054 2.049-5.378 2.049-7.432 0-3.866-3.844-6.296-8.897-6.885-14.316 5.42.588 10.474 3.018 14.317 6.885 2.052 2.052 2.052 5.379 0 7.431zm-44.921-7.432c3.843-3.866 8.897-6.296 14.316-6.884-.589 5.419-3.019 10.473-6.885 14.316-2.038 2.067-5.365 2.09-7.432.053-2.067-2.038-2.09-5.365-.053-7.432.019-.018.036-.035.054-.053zm22.46 14.465c.5.659 1.02 1.3 1.56 1.933-.965-.076-1.927-.174-2.89-.266.459-.546.903-1.102 1.33-1.667zm-128-293.494c-.716 0-1.429.097-2.12.287 11.126-14.523 24.345-27.314 39.226-37.956l-4.927 37.669zm-80 112c-.082-84.868 47.851-162.479 123.773-200.406l-3.918 29.754c-34.583 21.128-61.95 52.24-78.494 89.235l-14.18 12.154c-6.782 5.831-11.425 13.758-13.192 22.526l-13.183 65.912c-.537-6.348-.806-12.74-.806-19.175zm.39 224 7.572-159.02 21.716-108.58c1.061-5.26 3.846-10.017 7.915-13.515l45.366-38.885h27.124l-9.143 69.759-17.378 11.585 8.875 13.312 49.236-32.824c6.529-4.345 15.344-2.574 19.688 3.955 3.943 5.925 2.89 13.853-2.461 18.545l-52.168 45.646c-.782.684-1.423 1.514-1.887 2.443l-32 64c-.631 1.262-.917 2.669-.829 4.077l7.468 119.502zm223.61 0c-47.106.157-93.037-14.694-131.134-42.4l-2.025-32.395c36.671 32.663 84.051 50.736 133.159 50.795 47.104.025 92.699-16.606 128.723-46.954l-3.639 32.754c-36.917 24.996-80.501 38.307-125.084 38.2zm224 0h-87.062l23.013-207.116c.169-1.533-.108-3.083-.8-4.462l-32-64c-.464-.929-1.105-1.759-1.887-2.443l-52.164-45.646c-5.897-5.17-6.487-14.141-1.318-20.039 4.691-5.352 12.62-6.404 18.544-2.461l49.235 32.824 8.876-13.312-12.81-8.54-9.4-72.8h22.809l45.366 38.886c4.069 3.498 6.854 8.255 7.915 13.515l21.682 108.386v247.208z" data-original="#000000" class="active-path" data-old_color="#000000" fill="#EE68A3"/><path d="m286.35 366.705c1.892-.001 3.782-.135 5.655-.4-.265 1.873-.399 3.762-.4 5.654 0 11.739 9.516 21.255 21.255 21.255s21.255-9.516 21.255-21.255c-.002-1.892-.135-3.782-.4-5.655 1.873.265 3.762.399 5.654.4 11.739 0 21.255-9.516 21.255-21.255s-9.516-21.255-21.255-21.255c-1.892.002-3.782.135-5.655.4.265-1.873.399-3.762.4-5.654 0-11.739-9.516-21.255-21.255-21.255s-21.255 9.516-21.255 21.255c.002 1.892.135 3.781.4 5.654-1.873-.265-3.762-.398-5.654-.4-11.739 0-21.255 9.516-21.255 21.255s9.516 21.255 21.255 21.255zm31.764 5.255c.04 2.902-2.28 5.287-5.182 5.327s-5.287-2.28-5.327-5.182c-.001-.048-.001-.097 0-.145-.016-5.451 1.839-10.743 5.254-14.992 3.416 4.249 5.271 9.54 5.256 14.992zm26.51-26.51c-.003 2.901-2.354 5.252-5.255 5.255-5.451.016-10.743-1.839-14.992-5.255 4.249-3.415 9.541-5.27 14.992-5.255 2.901.003 5.252 2.354 5.255 5.255zm-31.765-31.764c2.901.003 5.252 2.354 5.255 5.255.016 5.451-1.839 10.743-5.255 14.992-3.415-4.249-5.27-9.541-5.255-14.992.003-2.901 2.354-5.252 5.255-5.255zm-26.509 26.509c5.451-.015 10.743 1.84 14.992 5.255-4.248 3.416-9.54 5.271-14.992 5.255-2.902 0-5.255-2.353-5.255-5.255s2.353-5.255 5.255-5.255z" data-original="#000000" class="active-path" data-old_color="#000000" fill="#EE68A3"/></g> </svg>
