<?xml version="1.0"?>
<svg xmlns="http://www.w3.org/2000/svg" xmlns:xlink="http://www.w3.org/1999/xlink" version="1.1" id="Capa_1" x="0px" y="0px" viewBox="0 0 512 512" style="enable-background:new 0 0 512 512;" xml:space="preserve" width="512px" height="512px"><g><g>
	<g>
		<g>
			<path d="M453.152,400c-22.924,0.02-45.339-6.769-64.4-19.504c-41.281-27.52-80.991-57.327-118.944-89.28L23.456,83.76     L2.848,108.24l56,47.216c-27.427,14.671-37.769,48.798-23.098,76.226c3.423,6.398,8.049,12.075,13.626,16.718l70.24,58.528     c10.153,8.453,22.949,13.079,36.16,13.072c24.052-0.02,45.933-13.918,56.176-35.68l37.232,31.36     c38.869,32.724,79.535,63.251,121.808,91.44c24.32,16.244,52.914,24.903,82.16,24.88c13.255,0,24,10.745,24,24s-10.745,24-24,24     h-77.536c-26.898,0-53.695-3.294-79.792-9.808c-17.834-4.481-36.579-3.76-54.016,2.08c-15.397,5.12-31.518,7.729-47.744,7.728     c-24.141,0.005-43.716-19.562-43.721-43.703c-0.002-8.63,2.551-17.067,7.337-24.249l22.4-33.6L20.928,290.016L5.376,317.984     l128.832,71.584l-3.2,4.8c-23.161,34.804-13.722,81.793,21.082,104.954c12.434,8.274,27.038,12.686,41.974,12.678     c19.666,0.009,39.203-3.163,57.856-9.392c11.674-3.871,24.207-4.354,36.144-1.392c28.634,7.159,58.037,10.781,87.552,10.784     h77.536c30.928,0,56-25.072,56-56C509.152,425.072,484.08,400,453.152,400z M184.528,267.2c-4.095,12.43-15.713,20.821-28.8,20.8     c-5.708-0.001-11.235-2.005-15.616-5.664l-70.24-58.528c-10.341-8.614-11.741-23.979-3.127-34.319     c2.901-3.482,6.715-6.087,11.015-7.521l9.024-3.008l99.2,83.6L184.528,267.2z" data-original="#000000" class="active-path" data-old_color="#000000" fill="#EE68A3"/>
			<path d="M221.152,93.056V176c0,26.51,21.49,48,48,48c26.51,0,48-21.49,48-48c0-8.837,7.163-16,16-16c26.51,0,48-21.49,48-48V96     h80c26.51,0,48-21.49,48-48s-21.49-48-48-48h-32v32h32c8.837,0,16,7.163,16,16s-7.163,16-16,16h-224c-8.837,0-16-7.163-16-16     s7.163-16,16-16h32V0h-32c-26.448-0.05-47.929,21.349-47.979,47.797C189.135,68.145,201.96,86.296,221.152,93.056z M253.152,96     h96v16c0,8.837-7.163,16-16,16c-26.51,0-48,21.49-48,48c0,8.837-7.163,16-16,16s-16-7.163-16-16V96z" data-original="#000000" class="active-path" data-old_color="#000000" fill="#EE68A3"/>
			<rect x="301.152" y="0" width="32" height="32" data-original="#000000" class="active-path" data-old_color="#000000" fill="#EE68A3"/>
			<rect x="365.152" y="0" width="32" height="32" data-original="#000000" class="active-path" data-old_color="#000000" fill="#EE68A3"/>
		</g>
	</g>
</g></g> </svg>
